<svg
  t="1770993986812"
  class="icon"
  viewBox="0 0 1167 1024"
  version="1.1"
  xmlns="http://www.w3.org/2000/svg"
  p-id="9032"
  width="64"
  height="64"
>
  <path
    d="M875.018 329.508a109.993 109.993 0 0 0-32.286-77.845c-42.973-42.9-112.579-42.844-155.505 0.093-42.921 42.951-42.921 112.558 0 155.504 42.916 42.942 112.522 42.983 155.505 0.097a109.993 109.993 0 0 0 32.286-77.85z m-292.787 391.65L408.253 497.223a54.528 54.528 0 0 0-87.439 0L62.577 797.327V136.31c-2.437-37.945 26.347-70.687 64.297-73.124h401.991L560.364 0H145.638C65.05 0.502 0 65.961 0 146.55v731.202c0.169 80.59 65.362 145.91 145.94 146.248h333.108l143.964-252.82-40.781-50.023z"
    fill="#CDCDCD"
    p-id="9033"
  ></path>
  <path
    d="M1020.652 0H698.158l-38.062 63.186h370.79a78.602 78.602 0 0 1 72.822 73.124v658.283L918.278 570.66a57.923 57.923 0 0 0-95.673-7.327L702.157 684.38l67.149 75.474L625.403 1024h395.249c80.46-0.502 145.469-65.782 145.633-146.248V146.55C1166.285 65.96 1101.24 0.502 1020.652 0z"
    fill="#CDCDCD"
    p-id="9034"
  ></path>
</svg>
